<?xml version="1.0" encoding="UTF-8"?>
<!DOCTYPE svg PUBLIC "-//W3C//DTD SVG 1.1//EN" "http://www.w3.org/Graphics/SVG/1.1/DTD/svg11.dtd">
<!-- Creator: CorelDRAW -->
<svg xmlns="http://www.w3.org/2000/svg" xml:space="preserve" width="99.9914mm" height="100.076mm" version="1.1" style="shape-rendering:geometricPrecision; text-rendering:geometricPrecision; image-rendering:optimizeQuality; fill-rule:evenodd; clip-rule:evenodd"
viewBox="0 0 9285.44 9293.31"
 xmlns:xlink="http://www.w3.org/1999/xlink"
 xmlns:xodm="http://www.corel.com/coreldraw/odm/2003">
 <defs>
  <style type="text/css">
   <![CDATA[
    .fil0 {fill:white}
   ]]>
  </style>
 </defs>
 <g id="Layer_x0020_1">
  <metadata id="CorelCorpID_0Corel-Layer"/>
  <g id="_2513377023472">
   <path class="fil0" d="M2091.38 4874.66l-597.53 0c2.79,-33.45 36.88,-101.3 50.12,-138.58l162.24 -411.71c72.79,-183.15 140.42,-363.22 214.47,-548.19l430.18 -1102.99 628.98 0 591.88 1507.37c19.86,49.45 37.72,89.92 55.77,140.79 17.6,49.57 34.43,88.47 53.22,135.48l163.99 417.82 -605.4 0c-8.57,-36.79 -25.97,-84.5 -39.31,-117.94 -14.98,-37.53 -25.87,-75.83 -41.62,-115.63l-84.18 -238.17 -817.69 0 -122.48 349.26c-15.91,41.08 -25.74,87.29 -42.63,122.48zm1548.89 -2201.46l1981.31 0 0 338.08 -691.89 0 0 1863.38 -597.53 0 0 -1863.38 -691.89 0 0 -338.08zm2736.1 739.06l0 715.48c0,257.93 158.61,432.43 393.11,432.43 194.82,0 440.3,1.15 440.3,-298.78l0 -94.35 581.81 0c0,410.47 -200.05,612.13 -587.94,701.49 -341.65,78.71 -789.05,41.44 -1083.43,-138.71 -189.18,-115.77 -333.53,-329.02 -333.53,-562.78l0 -778.37c0,-119.35 42.87,-254.43 86.73,-329.97 157.39,-271.03 501.77,-416.95 841.03,-416.95 286.27,0 589.25,11.29 804.35,170.58 194.7,144.19 272.79,318.97 272.79,576.34l-573.95 0c0,-336.8 -134.33,-408.85 -448.16,-408.85 -252.68,0 -393.11,178.29 -393.11,432.43zm-1619.64 -3412.26c-406.84,0 -670.6,13 -1069.38,109.98 -486.93,118.43 -910.49,312.36 -1322.43,588.13l-527.1 432.11c-21.51,21.63 -37.39,37.5 -59.03,58.9 -104.67,103.49 -307.8,353.11 -377.74,455.68l-187.77 291.83c-30.58,50.99 -56.69,97.9 -83.72,152.15 -89.91,180.39 -149.99,307.11 -214.56,500.92 -41.28,123.9 -75.23,239.62 -106.83,372.78 -28.37,119.57 -55.72,277.06 -68.39,411.21 -29.21,309.05 -33.73,578.76 11.52,891.21 21.14,145.92 45.74,267.78 78.95,400.65 63.85,255.46 150.95,488.99 257.37,701.84 115.98,231.95 198.24,377.69 359.05,592.3l155.35 198.45c92.55,103.8 193.85,217.48 294.67,310.74 23.82,22.04 38.53,29.92 63.02,54.92l257.38 214.36c173.51,133.34 325.83,222.63 513.67,327.61 211.34,118.11 435.1,207.22 666.78,284.56 277.09,92.5 498.81,128.07 789.61,169.6 151.81,21.68 203.3,15.94 333.96,19.84 42.58,1.27 65.28,8.27 117.66,8.2 552.55,-0.8 1077.3,-113.12 1587.1,-323.55 112.33,-46.37 291.52,-130.78 395.76,-193.92 26.39,-15.98 47.44,-27.03 74.62,-43.32 124.11,-74.36 242.97,-152.42 358.6,-238.93 27.02,-20.22 43.52,-34.93 70.7,-55.1l129.44 -106.44c23.73,-22.6 38.98,-30.5 62.93,-55 25.49,-26.09 42.36,-35.17 66.95,-58.84l176.85 -176.97c22.12,-23.91 29.86,-38.42 54.97,-62.96 111.42,-108.87 340.62,-435.82 409.3,-549.91l169.2 -310.39c165.58,-331.16 282.63,-710.95 336.86,-1094.1 25.04,-176.89 23.85,-277.11 37.51,-442.09 6.24,-75.4 -15.73,-364.48 -22.96,-447.97 -26.68,-308.28 -121.79,-678.76 -234.95,-960.12 -90.87,-225.93 -192.84,-422.92 -321.95,-629.39 -42.37,-67.75 -198.19,-287.2 -251.11,-346.43 -19.23,-21.53 -40.66,-47.47 -57.05,-68.75 -18.82,-24.42 -36.38,-38.44 -55.06,-62.89l-237.04 -242.56c-23.27,-18.57 -37.68,-37.23 -59.6,-58.34l-259.12 -212.62c-25.27,-20.75 -41.79,-30.81 -67.65,-50.28 -145.94,-109.87 -356.21,-236.58 -521.87,-319.41 -170.36,-85.17 -322.84,-155.59 -506.81,-216.53 -294.98,-97.71 -459.45,-138.87 -773.97,-185.23 -137.5,-20.27 -292.2,-35.91 -443.7,-35.91z"/>
   <path class="fil0" d="M345.94 3365.09c0,108.56 72.23,156.49 110.08,228 -162.55,-37.87 -408.85,-244.4 -408.85,102.21 0,317.28 104.84,355.86 49.63,725.79 -40.07,268.47 -96.8,542 -96.8,815.23 0,103.72 207.11,492.85 256.84,592.29 48.44,96.88 95.67,182.73 146.72,277.84 24.98,46.52 52.98,91.45 76.08,136.2 69.59,134.75 163.61,284.13 228.01,408.85 24.53,47.51 50.91,86.99 75.93,136.34 41.47,81.77 184.03,340.75 236.6,400.25l223.86 200.71c21.19,17.25 34.76,28.83 55.62,46.58l431.23 315.69c44.17,32.81 80.47,53.43 127.84,84.44 46.39,30.37 83.26,54.34 129.98,82.3 161.6,96.72 382,225.66 563.53,285.61 134.87,44.54 184.67,57.42 276.28,148.28 167.96,166.56 206.32,451.13 206.32,737.17 0,79.83 -10.01,135.75 -15.73,204.42l613.26 0 3.58 0c74.89,-0.2 120.81,-8.15 192.95,-7.88l716.65 0.69c54.37,-0.97 48.23,-3.66 28.74,-37.03 -74.79,-128.07 -116.8,-336.2 -124.25,-490.4 -1.76,-36.31 -9.82,-49.37 -8.28,-94.43 13.96,-410.56 173.41,-639.99 173.41,-746.85 0,-50.27 -15.95,-140.67 -31.45,-172.97 -928.62,0 -1891.46,-354.47 -2565.6,-901.69 -47.28,-38.38 -89.01,-69.51 -133.16,-110.56l-377.43 -369.51c-201.64,-198.36 -487.82,-659.68 -600.76,-885.21 -57.09,-114 -101.49,-222.8 -149.71,-345.62 -82.2,-209.32 -117.03,-357.2 -167.49,-571.58 -15.65,-66.49 -26.6,-145.41 -38.14,-213.45 -52.11,-307.01 -56.07,-761.7 -10.35,-1077.46 5.99,-41.32 17.12,-92.66 17.12,-132.25 -53.37,25.6 -87.8,38.51 -135.82,84.32 -32.95,31.44 -76.46,83.3 -76.46,143.69z"/>
   <path class="fil0" d="M8774.39 3663.86c0,258.83 4.31,420.4 -40.45,682.89 -11.54,67.7 -21.64,143.91 -36.61,207.13 -16.75,70.77 -31.15,136.25 -48.77,202.82 -68.57,258.98 -159.37,500.02 -269.91,720.75 -111.69,223.03 -234.54,421.76 -376.92,613.74 -18.93,25.52 -33.5,41.52 -51.8,66.14 -19.87,26.71 -37.15,45.21 -56.18,69.62 -18.27,23.44 -35.33,46.15 -56.95,68.84 -65.79,69.07 -95.38,111.12 -176.89,192.63 -305.93,305.92 -595.02,536.87 -990.01,747.57 -28.92,15.43 -44.67,26.43 -75.98,41.96l-256.85 120.54c-87.77,42.65 -260.67,103.76 -358.7,136.63 -373.98,125.45 -858.89,209.31 -1276.67,209.31 -13.76,28.69 -31.45,120.63 -31.45,165.11 0,163.37 330.04,623.55 78.73,1258.08 -56.04,141.5 -103.65,117.95 62.79,117.83l1454.54 7.87c-10.21,-122.71 -15.73,-159.22 -15.73,-290.91 0,-255.68 74.29,-518.75 202.34,-646.8 90.95,-90.96 139.82,-105.79 274.32,-150.25 110.99,-36.69 198.08,-82.86 293.86,-130.71 251.11,-125.46 800.17,-489.48 1016.27,-682 268.93,-239.58 209.33,-145.76 385.73,-463.4 52.45,-94.44 99.71,-178.18 152.32,-272.24l592.1 -1106.17c25.68,-51.19 117.94,-252.34 117.94,-314.5 0,-329.61 -59.46,-486.52 -94.36,-801.95 -52.84,-477.6 47.18,-389.66 47.18,-723.35 0,-110.65 -28.91,-234.76 -135.76,-215.13 -68.35,12.55 -183.72,76.39 -273.08,97.2 37.27,-70.42 243.31,-249.89 -28.83,-419.32 -31.26,-19.45 -42.35,-21.81 -73.37,-36.69 0,52.41 47.17,325.77 47.17,526.77z"/>
   <path class="fil0" d="M2382.29 4056.98l566.09 0c-15.21,-65.3 -44.02,-127.44 -65.85,-193.61l-139.7 -394.93c-12.87,-34.32 -53.32,-172.12 -77.49,-189.83 -27.69,20.29 -60.51,150.33 -74.08,185.37l-208.97 593z"/>
  </g>
 </g>
</svg>
